<svg xmlns="http://www.w3.org/2000/svg" width="120" height="30" fill="none"><g fill="#bbb"><path d="M15.5 28A13.2 13.2 0 0 1 4 16.6v-.3l6-4.4 6.3-4.3a88.6 88.6 0 0 1 7.8 6.4l-2.8 2a22.6 22.6 0 0 1-2.7 1.8l-3-2.3-3-2.3V18l3 2.4 3 2.3 5.7-4.1 5.8-4.1a13 13 0 0 1-3.6 9.5 12.9 12.9 0 0 1-11 4zm.5-15.6V12h-1v1h1zm1.4 0V12h-1v1h1zM16 11v-.5h-1v1h1zm1.4 0v-.5h-1v1h1zm31 11.1a6.2 6.2 0 0 1-5.3-4.7c-.2-1-.2-2.5 0-3.5a6.2 6.2 0 0 1 4.5-4.7 8 8 0 0 1 3.3 0 5.7 5.7 0 0 1 3.8 3.2c.5 1.1.8 2.8.7 4v.5h-8.8v.1a3 3 0 0 0 3 2.3c1 0 2-.4 2.7-1l.4-.3 1.1 1 1 .8-.6.6c-.9 1-2 1.5-3.2 1.7h-2.7zm3.4-7.9c-.1-.6-.6-1.3-1-1.6a2.5 2.5 0 0 0-3.2 0c-.5.5-.8 1-1 1.7v.3h5.3zm39.5 7.9a6 6 0 0 1-4.6-4.5c-.2-.9-.2-2.6 0-3.6a6.7 6.7 0 0 1 2.2-3.4c1-.8 2.3-1.2 3.5-1.2 2.7 0 4.7 1.6 5.4 4.3.2.7.4 2.1.3 2.6v.3h-9.7l.1.6a4 4 0 0 0 1.2 2.1 3.9 3.9 0 0 0 3 1.2c1.2 0 2.4-.4 3.3-1.2l.5-.4.6.5.6.5-.7.6c-.7.7-1.6 1.2-2.6 1.5-.6.2-2.5.2-3 .1zm4.8-7.3c0-.6-.6-2-1.1-2.6a3.6 3.6 0 0 0-4.5-.6c-1 .7-1.7 1.7-2 2.9v.5H96zm8.3 7.4c-3-.5-5-3-5-6.3 0-2 .5-3.5 1.8-4.8.8-.8 1.6-1.2 2.6-1.5a7 7 0 0 1 2.7 0c1.2.3 2.2 1 3 1.8l.3.5V4.7h2V22h-2v-2.4l-.3.4a5.5 5.5 0 0 1-5 2.2zm2.2-1.9a4.8 4.8 0 0 0 .6-8.8 4.1 4.1 0 0 0-4.6.9c-.9.9-1.3 2-1.3 3.5a4.3 4.3 0 0 0 3.2 4.5h2.1zM73.3 22a2.8 2.8 0 0 1-1.9-1.4c-.4-.8-.4-1.1-.4-4.8v-3.4h-1.5V9.2H71V6h3.6v3.2h3v3.2h-3v2.9c0 3.1 0 3.1.5 3.4.4.3 1.3.2 2.3-.2l.1 1.4v1.5l-.2.1c-.7.5-1.6.7-2.5.6h-1.5zm-38-6.4V9.2h3.6v2.3l.3-.5c.8-1.3 1.7-1.9 3.1-2h.6v3.8h-.7c-1.3.2-2.2.8-2.8 1.9-.4 1-.5 1.3-.5 4.5V22h-3.7zm21.5 0V9.2h3.7V11l.5-.6A4 4 0 0 1 64.2 9c2 0 3.4 1 4 2.8l.3.6V22h-3.7V18c0-4.3 0-4.5-.5-5-.4-.6-.8-.7-1.6-.7-.6 0-.7 0-1 .2a2 2 0 0 0-.7.6c-.5.6-.5.9-.5 5V22h-3.7zm22.6.2V9.7h1.9v3l.2-.5a5.6 5.6 0 0 1 3-2.5l1.1-.2h.6v2H86c-.6 0-1.6.3-2 .6-.9.4-1.5 1.1-2 2-.5 1.2-.6 1.4-.6 4.8v3h-2zm35.3 0V9.7h2V22h-2z"/><path d="M4 13.2a13 13 0 0 1 22.3-7.5l1.5 1.8c.5.7 1.3 2.3 1.4 2.7 0 .2 0 .3-1.4 1.2l-1.6 1-2.8-2.2-4.9-3.9-2.1-1.7-2.1 1.5-2.1 1.5V6.1H9.7v3.2l-2.8 2-2.8 2H4zm110.6-7.1v-1h2v2h-2z"/></g></svg>