<svg xmlns="http://www.w3.org/2000/svg" width="89" height="30" fill="none"><g fill="#bbb"><path d="M29.5 8.6h4.2l3.2 8.7h.1l3-8.7h4l-5 12.8h-4.3zM14 11.7h-4v4.4c0 .7.2 1.7.8 2s1.6.4 2.3.3c.4 0 .7-.1.9-.3v3.2l-1.5.4c-2.8.3-6.8-.3-6.8-3.8v-6.2H3V8.6h2.7V4.8h4.4v3.8H14zm11-3.1h4v12.8h-4zM24.8 5C24.8 4 25.8 3 27 3S29 4 29 5.1c0 1.2-1 2.1-2 2.1-1.1 0-2.2-1-2.2-2zM73.7 15c0 1.7 1 3.3 2.9 3.3s2.8-1.5 2.8-3.3c0-1.7-1-3.3-2.8-3.3-2 0-2.9 1.5-2.9 3.3zm-3.6 0c0-2.7 1.5-5.4 4.2-6.3 2.6-1 5.7-.2 7.4 2a7.5 7.5 0 0 1 .6 7.7c-1.3 2.5-4.3 3.7-7 3.2-3.3-.6-5.2-3.4-5.2-6.6zM84.9 12.2c-1 0-1.7-.8-1.7-1.7 0-1 .7-1.7 1.7-1.7s1.7.7 1.7 1.7c0 .8-.8 1.7-1.7 1.7zm0-4c-1.2 0-2.1 1-2.1 2.2 0 1.1 1 2 2.1 2s2.1-.9 2.1-2A2 2 0 0 0 85 8.3zm.3 1.9c0-.2-.2-.2-.4-.2h-.2v.4c.4 0 .6 0 .6-.2zm.9 1.3h-.7l-.5-.7h-.2v.7h-.5v-2h1.1c.4.1.7.6.3 1l-.3.2zM66 8.5v1.8h-.2l-.4-.6c-2.5-2.2-7-1.7-8.5 1.4-.9 1.6-1 3.6-.8 5.4.2 1.6.9 3.4 2.2 4.3a6 6 0 0 0 5.5.5c.9-.3 1.4-1 1.6-1.2v1.2c0 1-.2 1.7-.7 2.3-1.2 1.1-3.3 1-4.8.7-.7-.2-1.6-.5-2.3-1L55.8 26c1 .7 2 1.1 3 1.5 3 .7 6.8.7 9-1.5 1.2-1.3 1.6-3 1.6-5.6v-12zm-1 8.8a2.8 2.8 0 0 1-4.2 0 4 4 0 0 1 0-4.7c1-1.3 3.1-1.3 4.2 0a4 4 0 0 1 0 4.7c.5-.6-.6.7 0 0zM15 8.6h4v2c.4-.7 1-1.3 1.5-1.7 1.3-.8 3.3-.5 3.5-.4V12c-.9-.2-2.6-.6-3.7.2-.8.4-1.4 1-1.4 3.9v5.4h-4v-13zM47.7 16.3c-.7.5-1.4 1.5-.6 2.2.7.7 2 .6 2.8.3 1-.3 1.7-1 1.7-2.2v-.8c.1 0-2.9-.2-4 .5zm4 3.6c-.5.6-1 1.1-1.8 1.4-2.8 1.2-6.8 0-6.8-3.4 0-3.7 4-4.5 6.8-4.6h1.8c0-.7-.2-1.2-.7-1.7-1-.8-2.5-.7-3.6-.2-.6.3-1 .7-1.5 1.2l-2.1-2.2c.7-.7 1.6-1.2 2.6-1.6 1.7-.6 3.8-.7 5.5-.2 1.7.4 2.7 1.8 3.2 3.5.2.8.2 1.8.2 2.8v6.5h-3.6z"/></g></svg>