<svg xmlns="http://www.w3.org/2000/svg" width="90" height="30" fill="none"><path fill="#bbb" d="M41.3 21.8c-1.6-.5-3-1.5-3.7-3-.7-1.2-.7-1.4-.7-8.3V6h3.6v5.3c.1 5.3.1 5.3.4 6 .6 1 1.8 1.6 3.3 1.3.6-.1 1.4-.8 1.7-1.5.3-.6.3-.9.3-5.9V6H50v5.2c0 5.6-.1 6.4-.7 7.7a6.2 6.2 0 0 1-3.8 2.9c-.8.2-3.3.2-4 0zm18-.8l-3.8-8-3.4-7h4.1l2 4.1 1.9 4 2.1-4.1 2-4h2.1l2 .1L60 22l-.6-1zm15 .6a6.7 6.7 0 0 1-2.7-1.7 7.7 7.7 0 0 1-2.5-5.8c0-2.6.6-4.1 2.3-5.8 1.1-1.1 2.2-1.8 3.4-2 1-.3 3.4-.4 4.3 0a8 8 0 0 1 5.6 5.6c.2 1 .2 3.1 0 4.2a7.7 7.7 0 0 1-5.2 5.5c-1.7.5-3.5.5-5.1 0zm4.6-3.3a4 4 0 0 0 2-2c.3-.7.3-1 .3-2.3 0-1.6-.1-2-.8-3.1a4.4 4.4 0 0 0-3.9-1.6c-2.6.3-4 2.5-3.7 5.5a4.3 4.3 0 0 0 3 3.9c.9.2 2.3 0 3.1-.4zM7.7 16v-5.7h3.6v5h2c1.4 0 2-.1 2.4-.3 1.2-.5 1.8-1.5 1.7-3-.1-.9-.6-1.6-1.4-2-.7-.3-.7-.3-5.8-.4H5V6h5.2c6 0 6.5 0 7.8 1 1 .6 1.5 1.3 2 2.4 1.3 2.6.7 6.1-1.3 8-1.4 1.2-2.3 1.5-5.4 1.5h-2v2.8H7.7zm16-2.1V6h3.5v12.7h7.3v3H23.6z"/></svg>