<svg xmlns="http://www.w3.org/2000/svg" width="133" height="30" fill="none"><g fill="#bbb"><g fill-rule="evenodd" clip-rule="evenodd"><path d="M29.8 21.4h1.4v-7.2l2 .1c2.7 0 6.2-1.2 6.2-5.3 0-1.6-.6-4.8-5.9-4.8-1.5 0-2.7.1-3.7.3zm1.4-15.9l2.3-.2c2.5 0 4.5 1 4.5 3.8 0 2.7-1.8 4.1-4.7 4.1-.8 0-1.5 0-2-.2zM51.6 14c0-4.4-3-5-4.2-5-1.7 0-3.3 1-4 2.3v-8H42v18.1h1.4V14l.1-1.2a3.8 3.8 0 0 1 3.5-2.6c2.4 0 3.2 2 3.2 4v7.3h1.4zm10.7-4.8L59.5 17l-.8 2.6-1-2.6-3-7.8h-1.5l4.5 11.3.1.5c0 .4-1.3 3.7-4.2 4.8l.5 1.2c3.2-1 4.6-4.5 6.2-9l3.5-8.8zm9.2.5a5 5 0 0 0-2.7-.8c-2.4 0-3.8 1.6-3.8 3.4 0 1.4 1 2.5 3 3.3 1.8.7 2.5 1.4 2.5 2.7 0 1.2-.9 2.2-2.7 2.2-1 0-2-.4-2.7-.8l-.5 1.1c.9.5 2 .9 3.2.9 2.4 0 4.1-1.4 4.1-3.6 0-1.8-1.2-2.8-3.1-3.6-1.7-.7-2.4-1.2-2.4-2.4 0-1.1.7-2 2.2-2 1.2 0 2 .4 2.4.7zm4.7-4c0-.6-.4-1-1-1a1 1 0 0 0-1 1c0 .6.4 1.2 1 1.2s1-.5 1-1.2zM76 9.2h-1.4v12.2h1.4zm3.7-.2h-1.8v2h1.8v6.4c0 1.6.2 2.6.9 3.3.5.6 1.4 1 2.4 1s1.6-.2 2-.3v-2l-1.2.1c-1 0-1.6-.7-1.6-2.3V11h3V9h-3V6l-2.5.8zM93 8.8a3 3 0 0 0-.6 0c-1.4 0-2.7.9-3.3 2.5L89 9h-2.3V21.4h2.7v-6.6c0-2.1 1.1-3.6 2.9-3.6h.7zm10.3 5c0-2.7-1-5-4.7-5-1.7 0-3.1.4-4 1l.5 1.7c.8-.5 2-.9 3-.9 2.6 0 2.6 1.9 2.6 2.8-4.3 0-7 1.5-7 4.6 0 2 1.3 3.7 3.7 3.7 1.5 0 2.7-.8 3.4-1.7h.1l.2 1.4h2.4c-.2-.8-.2-1.9-.2-3zm-2.6 3.4c0 1.5-1.1 2.5-2.6 2.5-1 0-1.8-.6-1.8-2 0-2.2 2.4-2.5 4.4-2.5zm13.4 1.9c-.6.2-1.3.5-2.4.5-2.1 0-3.7-1.7-3.7-4.4 0-2.4 1.3-4.4 3.8-4.4 1 0 1.8.3 2.2.5l.5-2c-.5-.3-1.6-.6-2.8-.6-4 0-6.4 2.8-6.4 6.6 0 3.9 2.4 6.4 6 6.4a8 8 0 0 0 3.2-.7zm7.6-5l4.4-5.1h-3L120 13l-1 1.5V3.3h-2.6v18.1h2.6V17l1-1.2 3.6 5.7h3.2zM127.4 10.3c0 .7.6 1.3 1.3 1.3a1.3 1.3 0 1 0 0-2.6c-.7 0-1.3.5-1.3 1.3zm.3 0c0-.6.5-1 1-1 .6 0 1 .4 1 1s-.4 1-1 1a1 1 0 0 1-1-1zm.8.7v-.6c.3 0 .4 0 .5.2v.4h.4l-.1-.3c0-.2-.1-.3-.3-.4.2 0 .3-.1.3-.3 0-.2-.2-.4-.6-.4h-.4V11zm0-1.2h.2c.2 0 .3.1.3.2 0 .2-.2.2-.5.2zM19.6 11.8l-2 2.9h-1.9l1.7-3L15.7 9h2zm-3.2 0l-1.9 2.9h-1.9l1.7-3L12.6 9h1.9z"/><path d="M25.7 11.8l-1.9 2.9h-1.9l1.7-3L21.9 9h1.9zm-3.1 0l-2 2.9h-1.8l1.7-3L18.8 9h1.9z"/></g><path d="M16.8 14.3V9.5c0-.3-.2-.4-.4-.4h-11c-.2 0-.4.1-.4.4v4.8c0 .2.2.4.4.4h11c.2 0 .4-.2.4-.4z"/><path d="M17.3 2h-4.8c-.3 0-.4.2-.4.4v18.7c0 .3.1.4.4.4h4.8c.2 0 .4-.1.4-.4V2.4c0-.2-.2-.4-.4-.4z"/></g></svg>